<svg width="246" height="61" viewBox="0 0 246 61" fill="none" xmlns="http://www.w3.org/2000/svg">
<path d="M85.1 24H78.22V23.24C78.4867 23.1333 78.7867 23.0267 79.12 22.92C79.4667 22.8 79.8133 22.7133 80.16 22.66V11.3H77.84L76.56 14.72H75.74C75.6867 14.4533 75.6333 14.1133 75.58 13.7C75.5267 13.2867 75.48 12.86 75.44 12.42C75.4 11.98 75.3667 11.5467 75.34 11.12C75.3133 10.68 75.3 10.3067 75.3 10H88.04C88.04 10.32 88.0267 10.6933 88 11.12C87.9733 11.5467 87.94 11.98 87.9 12.42C87.86 12.86 87.8133 13.2867 87.76 13.7C87.7067 14.1 87.6533 14.44 87.6 14.72H86.76L85.48 11.3H83.16V22.66C83.5067 22.7267 83.8467 22.8067 84.18 22.9C84.5267 22.9933 84.8333 23.1067 85.1 23.24V24ZM97.1344 21.1C97.1344 21.3933 97.1344 21.6467 97.1344 21.86C97.1477 22.0733 97.1677 22.3 97.1944 22.54L98.5744 22.74V23.44C98.4144 23.52 98.1944 23.6 97.9144 23.68C97.6477 23.76 97.361 23.84 97.0544 23.92C96.761 23.9867 96.4677 24.04 96.1744 24.08C95.881 24.1333 95.621 24.1733 95.3944 24.2H94.7144C94.581 23.8933 94.501 23.5867 94.4744 23.28C94.4477 22.9733 94.4277 22.6 94.4144 22.16H94.3144C94.2477 22.4267 94.1344 22.6867 93.9744 22.94C93.8144 23.18 93.6077 23.4 93.3544 23.6C93.1144 23.7867 92.8277 23.94 92.4944 24.06C92.161 24.18 91.7877 24.24 91.3744 24.24C90.9344 24.24 90.5277 24.1733 90.1544 24.04C89.781 23.9067 89.4544 23.72 89.1744 23.48C88.8944 23.24 88.6744 22.9533 88.5144 22.62C88.3544 22.2733 88.2744 21.8867 88.2744 21.46C88.2744 20.86 88.3877 20.3667 88.6144 19.98C88.841 19.5933 89.1944 19.28 89.6744 19.04C90.1677 18.7867 90.7944 18.6 91.5544 18.48C92.3277 18.36 93.261 18.2733 94.3544 18.22C94.461 17.0733 94.4144 16.2333 94.2144 15.7C94.0144 15.1667 93.581 14.9 92.9144 14.9C92.501 14.9 92.121 14.9667 91.7744 15.1L90.8344 17.5H89.9544C89.8477 17.34 89.741 17.16 89.6344 16.96C89.541 16.7467 89.4477 16.5267 89.3544 16.3C89.2744 16.06 89.201 15.82 89.1344 15.58C89.081 15.34 89.041 15.1067 89.0144 14.88C89.521 14.5333 90.1744 14.26 90.9744 14.06C91.7744 13.86 92.621 13.76 93.5144 13.76C94.2744 13.76 94.8944 13.8467 95.3744 14.02C95.8544 14.18 96.2277 14.4067 96.4944 14.7C96.7744 14.98 96.9677 15.3133 97.0744 15.7C97.181 16.0867 97.2344 16.5 97.2344 16.94C97.2344 17.74 97.2144 18.4667 97.1744 19.12C97.1477 19.76 97.1344 20.42 97.1344 21.1ZM92.6344 22.64C92.9144 22.64 93.1544 22.5867 93.3544 22.48C93.5544 22.3733 93.721 22.2467 93.8544 22.1C94.001 21.9533 94.1077 21.7933 94.1744 21.62C94.2544 21.4467 94.3144 21.2933 94.3544 21.16V19.16C93.7277 19.1733 93.2144 19.2133 92.8144 19.28C92.4144 19.3467 92.101 19.46 91.8744 19.62C91.6477 19.7667 91.4877 19.96 91.3944 20.2C91.3144 20.4267 91.2744 20.7067 91.2744 21.04C91.2744 21.5467 91.3944 21.94 91.6344 22.22C91.8744 22.5 92.2077 22.64 92.6344 22.64ZM105.707 14H110.287V14.78C110.154 14.8867 109.987 14.98 109.787 15.06C109.601 15.1267 109.347 15.2133 109.027 15.32C108.574 15.8667 108.107 16.3933 107.627 16.9C107.147 17.3933 106.681 17.8533 106.227 18.28C106.521 18.6 106.821 18.9467 107.127 19.32C107.434 19.6933 107.734 20.08 108.027 20.48C108.334 20.8667 108.641 21.2533 108.947 21.64C109.267 22.0267 109.587 22.3933 109.907 22.74L110.747 23.22V24H107.607L106.967 23.54C106.394 22.8467 105.921 22.1533 105.547 21.46C105.187 20.7667 104.821 20.08 104.447 19.4H103.647V22.74C104.074 22.86 104.447 23.02 104.767 23.22V24H99.4472V23.22C99.8072 23.0067 100.247 22.8467 100.767 22.74V15.26C100.301 15.1667 99.8605 15.0067 99.4472 14.78V14H104.547V14.78C104.414 14.8733 104.281 14.96 104.147 15.04C104.027 15.12 103.861 15.1933 103.647 15.26V18.52L104.567 18.32C104.954 17.88 105.341 17.4067 105.727 16.9C106.114 16.3933 106.467 15.8667 106.787 15.32C106.561 15.2267 106.367 15.14 106.207 15.06C106.047 14.98 105.881 14.8867 105.707 14.78V14ZM120.142 21.1C120.142 21.3933 120.142 21.6467 120.142 21.86C120.156 22.0733 120.176 22.3 120.202 22.54L121.582 22.74V23.44C121.422 23.52 121.202 23.6 120.922 23.68C120.656 23.76 120.369 23.84 120.062 23.92C119.769 23.9867 119.476 24.04 119.182 24.08C118.889 24.1333 118.629 24.1733 118.402 24.2H117.722C117.589 23.8933 117.509 23.5867 117.482 23.28C117.456 22.9733 117.436 22.6 117.422 22.16H117.322C117.256 22.4267 117.142 22.6867 116.982 22.94C116.822 23.18 116.616 23.4 116.362 23.6C116.122 23.7867 115.836 23.94 115.502 24.06C115.169 24.18 114.796 24.24 114.382 24.24C113.942 24.24 113.536 24.1733 113.162 24.04C112.789 23.9067 112.462 23.72 112.182 23.48C111.902 23.24 111.682 22.9533 111.522 22.62C111.362 22.2733 111.282 21.8867 111.282 21.46C111.282 20.86 111.396 20.3667 111.622 19.98C111.849 19.5933 112.202 19.28 112.682 19.04C113.176 18.7867 113.802 18.6 114.562 18.48C115.336 18.36 116.269 18.2733 117.362 18.22C117.469 17.0733 117.422 16.2333 117.222 15.7C117.022 15.1667 116.589 14.9 115.922 14.9C115.509 14.9 115.129 14.9667 114.782 15.1L113.842 17.5H112.962C112.856 17.34 112.749 17.16 112.642 16.96C112.549 16.7467 112.456 16.5267 112.362 16.3C112.282 16.06 112.209 15.82 112.142 15.58C112.089 15.34 112.049 15.1067 112.022 14.88C112.529 14.5333 113.182 14.26 113.982 14.06C114.782 13.86 115.629 13.76 116.522 13.76C117.282 13.76 117.902 13.8467 118.382 14.02C118.862 14.18 119.236 14.4067 119.502 14.7C119.782 14.98 119.976 15.3133 120.082 15.7C120.189 16.0867 120.242 16.5 120.242 16.94C120.242 17.74 120.222 18.4667 120.182 19.12C120.156 19.76 120.142 20.42 120.142 21.1ZM115.642 22.64C115.922 22.64 116.162 22.5867 116.362 22.48C116.562 22.3733 116.729 22.2467 116.862 22.1C117.009 21.9533 117.116 21.7933 117.182 21.62C117.262 21.4467 117.322 21.2933 117.362 21.16V19.16C116.736 19.1733 116.222 19.2133 115.822 19.28C115.422 19.3467 115.109 19.46 114.882 19.62C114.656 19.7667 114.496 19.96 114.402 20.2C114.322 20.4267 114.282 20.7067 114.282 21.04C114.282 21.5467 114.402 21.94 114.642 22.22C114.882 22.5 115.216 22.64 115.642 22.64ZM122.995 17.04C122.995 16.5867 123.075 16.1667 123.235 15.78C123.395 15.3933 123.642 15.06 123.975 14.78C124.322 14.5 124.755 14.28 125.275 14.12C125.795 13.96 126.415 13.88 127.135 13.88C127.295 13.88 127.522 13.8867 127.815 13.9C128.122 13.9133 128.442 13.9267 128.775 13.94C129.108 13.9533 129.428 13.9667 129.735 13.98C130.042 13.9933 130.282 14 130.455 14H132.975V14.78C132.868 14.8733 132.715 14.96 132.515 15.04C132.328 15.12 132.042 15.1933 131.655 15.26V22.74C132.148 22.8867 132.588 23.0467 132.975 23.22V24H127.675V23.22C127.995 23.0067 128.362 22.8467 128.775 22.74V19.88L127.455 20.08C127.242 20.5333 126.975 21.0667 126.655 21.68C126.348 22.2933 125.948 22.9133 125.455 23.54L124.835 24H121.875V23.22L122.815 22.74C123.268 22.2867 123.695 21.7867 124.095 21.24C124.508 20.68 124.855 20.2133 125.135 19.84C124.842 19.7467 124.562 19.6267 124.295 19.48C124.042 19.3333 123.815 19.1467 123.615 18.92C123.428 18.6933 123.275 18.4267 123.155 18.12C123.048 17.8133 122.995 17.4533 122.995 17.04ZM128.775 15.14C128.642 15.1133 128.468 15.0867 128.255 15.06C128.055 15.0333 127.875 15.02 127.715 15.02C126.542 15.0067 125.955 15.66 125.955 16.98C125.955 17.58 126.142 18.0667 126.515 18.44C126.888 18.8133 127.462 19 128.235 19H128.775V15.14ZM143.69 24H138.75V23.24C138.963 23.1067 139.19 22.9933 139.43 22.9C139.683 22.7933 139.93 22.7133 140.17 22.66L145.33 9.76H146.81L151.83 22.66C152.097 22.7133 152.363 22.7933 152.63 22.9C152.897 22.9933 153.13 23.1067 153.33 23.24V24H147.07V23.24C147.323 23.12 147.597 23.0067 147.89 22.9C148.183 22.7933 148.463 22.7133 148.73 22.66L147.57 19.48H143.13L141.95 22.66C142.563 22.74 143.143 22.9333 143.69 23.24V24ZM143.61 18.18H147.15L145.85 14.36L145.47 12.64H145.43L144.99 14.4L143.61 18.18ZM164.1 21.08C164.1 21.6133 163.987 22.0733 163.76 22.46C163.534 22.8333 163.22 23.14 162.82 23.38C162.42 23.62 161.947 23.8 161.4 23.92C160.867 24.0267 160.294 24.08 159.68 24.08C159.254 24.08 158.887 24.0733 158.58 24.06C158.274 24.06 158.007 24.0533 157.78 24.04C157.554 24.0267 157.354 24.0133 157.18 24C157.02 24 156.867 24 156.72 24H153.9V23.22C154.314 23.0067 154.754 22.8467 155.22 22.74V15.26C154.714 15.1667 154.274 15.0067 153.9 14.78V14H156.6C157.24 14 157.807 13.9867 158.3 13.96C158.794 13.9333 159.287 13.92 159.78 13.92C161.047 13.92 162.007 14.1 162.66 14.46C163.327 14.8067 163.66 15.42 163.66 16.3C163.66 16.62 163.587 16.9067 163.44 17.16C163.307 17.4133 163.12 17.6333 162.88 17.82C162.654 18.0067 162.4 18.16 162.12 18.28C161.84 18.4 161.56 18.4867 161.28 18.54C161.654 18.5667 162.007 18.64 162.34 18.76C162.687 18.88 162.987 19.0467 163.24 19.26C163.507 19.4733 163.714 19.7333 163.86 20.04C164.02 20.3333 164.1 20.68 164.1 21.08ZM158.1 22.86C158.287 22.9 158.487 22.9267 158.7 22.94C158.927 22.94 159.12 22.94 159.28 22.94C159.88 22.94 160.334 22.7867 160.64 22.48C160.947 22.1733 161.1 21.7267 161.1 21.14C161.1 20.5667 160.92 20.14 160.56 19.86C160.214 19.5667 159.754 19.42 159.18 19.42H158.1V22.86ZM158.1 18.56L159.88 18.36C160.094 18.2267 160.3 18.0133 160.5 17.72C160.7 17.4133 160.8 17.04 160.8 16.6C160.8 15.5733 160.207 15.06 159.02 15.06C158.874 15.06 158.72 15.0667 158.56 15.08C158.4 15.08 158.247 15.1 158.1 15.14V18.56ZM173.905 22.38C173.812 22.6467 173.658 22.8933 173.445 23.12C173.232 23.3333 172.972 23.5267 172.665 23.7C172.372 23.8733 172.032 24.0067 171.645 24.1C171.272 24.1933 170.878 24.24 170.465 24.24C169.585 24.24 168.825 24.12 168.185 23.88C167.558 23.6267 167.038 23.2733 166.625 22.82C166.212 22.3533 165.905 21.8 165.705 21.16C165.505 20.5067 165.405 19.7867 165.405 19C165.405 17.3067 165.865 16.0133 166.785 15.12C167.718 14.2133 169.038 13.76 170.745 13.76C171.398 13.76 171.998 13.8333 172.545 13.98C173.092 14.1133 173.545 14.2733 173.905 14.46C173.878 14.6867 173.838 14.94 173.785 15.22C173.745 15.4867 173.692 15.76 173.625 16.04C173.572 16.3067 173.505 16.5733 173.425 16.84C173.345 17.0933 173.265 17.3067 173.185 17.48H172.205L171.365 15.1C171.272 15.0333 171.172 14.9867 171.065 14.96C170.958 14.92 170.798 14.9 170.585 14.9C170.238 14.9 169.938 14.9667 169.685 15.1C169.432 15.22 169.212 15.4333 169.025 15.74C168.852 16.0467 168.718 16.4533 168.625 16.96C168.545 17.4667 168.505 18.0933 168.505 18.84C168.505 19.3867 168.565 19.8933 168.685 20.36C168.805 20.8133 168.985 21.2133 169.225 21.56C169.478 21.8933 169.792 22.16 170.165 22.36C170.538 22.5467 170.978 22.64 171.485 22.64C171.952 22.64 172.358 22.5733 172.705 22.44C173.052 22.3067 173.345 22.1467 173.585 21.96L173.905 22.38ZM182.791 24H177.111V23.22C177.311 23.1133 177.538 23.02 177.791 22.94C178.045 22.86 178.285 22.7933 178.511 22.74V15.14H177.051L176.171 17.9H175.331C175.265 17.62 175.198 17.3067 175.131 16.96C175.078 16.6133 175.031 16.2667 174.991 15.92C174.951 15.56 174.911 15.2133 174.871 14.88C174.845 14.5467 174.831 14.2533 174.831 14H185.071C185.071 14.24 185.058 14.5267 185.031 14.86C185.005 15.1933 184.965 15.54 184.911 15.9C184.871 16.2467 184.818 16.6 184.751 16.96C184.698 17.3067 184.638 17.62 184.571 17.9H183.731L182.851 15.14H181.391V22.74C181.698 22.82 181.958 22.8933 182.171 22.96C182.385 23.0267 182.591 23.1133 182.791 23.22V24ZM191.311 28H185.791V27.22C186.244 27.0067 186.684 26.8467 187.111 26.74V15.42L185.791 15.26V14.48C186.004 14.3867 186.264 14.3 186.571 14.22C186.891 14.14 187.218 14.0733 187.551 14.02C187.884 13.9533 188.204 13.9 188.511 13.86C188.831 13.82 189.098 13.7867 189.311 13.76H189.991V16H190.011C190.238 15.36 190.591 14.8267 191.071 14.4C191.564 13.9733 192.244 13.76 193.111 13.76C193.698 13.76 194.224 13.86 194.691 14.06C195.171 14.2467 195.571 14.5467 195.891 14.96C196.224 15.36 196.478 15.88 196.651 16.52C196.838 17.1467 196.931 17.9 196.931 18.78C196.931 19.62 196.811 20.38 196.571 21.06C196.344 21.74 196.011 22.3133 195.571 22.78C195.144 23.2467 194.618 23.6067 193.991 23.86C193.378 24.1133 192.678 24.24 191.891 24.24C191.438 24.24 191.078 24.2067 190.811 24.14C190.558 24.0867 190.284 23.9867 189.991 23.84V26.74C190.204 26.7667 190.418 26.8133 190.631 26.88C190.844 26.96 191.071 27.0733 191.311 27.22V28ZM191.951 15.36C191.498 15.36 191.091 15.52 190.731 15.84C190.384 16.16 190.138 16.6533 189.991 17.32V22.64C190.204 22.8 190.431 22.92 190.671 23C190.911 23.0667 191.224 23.1 191.611 23.1C192.371 23.1 192.931 22.7333 193.291 22C193.651 21.2667 193.831 20.1933 193.831 18.78C193.831 17.6867 193.691 16.8467 193.411 16.26C193.144 15.66 192.658 15.36 191.951 15.36ZM206.959 21.1C206.959 21.3933 206.959 21.6467 206.959 21.86C206.972 22.0733 206.992 22.3 207.019 22.54L208.399 22.74V23.44C208.239 23.52 208.019 23.6 207.739 23.68C207.472 23.76 207.185 23.84 206.879 23.92C206.585 23.9867 206.292 24.04 205.999 24.08C205.705 24.1333 205.445 24.1733 205.219 24.2H204.539C204.405 23.8933 204.325 23.5867 204.299 23.28C204.272 22.9733 204.252 22.6 204.239 22.16H204.139C204.072 22.4267 203.959 22.6867 203.799 22.94C203.639 23.18 203.432 23.4 203.179 23.6C202.939 23.7867 202.652 23.94 202.319 24.06C201.985 24.18 201.612 24.24 201.199 24.24C200.759 24.24 200.352 24.1733 199.979 24.04C199.605 23.9067 199.279 23.72 198.999 23.48C198.719 23.24 198.499 22.9533 198.339 22.62C198.179 22.2733 198.099 21.8867 198.099 21.46C198.099 20.86 198.212 20.3667 198.439 19.98C198.665 19.5933 199.019 19.28 199.499 19.04C199.992 18.7867 200.619 18.6 201.379 18.48C202.152 18.36 203.085 18.2733 204.179 18.22C204.285 17.0733 204.239 16.2333 204.039 15.7C203.839 15.1667 203.405 14.9 202.739 14.9C202.325 14.9 201.945 14.9667 201.599 15.1L200.659 17.5H199.779C199.672 17.34 199.565 17.16 199.459 16.96C199.365 16.7467 199.272 16.5267 199.179 16.3C199.099 16.06 199.025 15.82 198.959 15.58C198.905 15.34 198.865 15.1067 198.839 14.88C199.345 14.5333 199.999 14.26 200.799 14.06C201.599 13.86 202.445 13.76 203.339 13.76C204.099 13.76 204.719 13.8467 205.199 14.02C205.679 14.18 206.052 14.4067 206.319 14.7C206.599 14.98 206.792 15.3133 206.899 15.7C207.005 16.0867 207.059 16.5 207.059 16.94C207.059 17.74 207.039 18.4667 206.999 19.12C206.972 19.76 206.959 20.42 206.959 21.1ZM202.459 22.64C202.739 22.64 202.979 22.5867 203.179 22.48C203.379 22.3733 203.545 22.2467 203.679 22.1C203.825 21.9533 203.932 21.7933 203.999 21.62C204.079 21.4467 204.139 21.2933 204.179 21.16V19.16C203.552 19.1733 203.039 19.2133 202.639 19.28C202.239 19.3467 201.925 19.46 201.699 19.62C201.472 19.7667 201.312 19.96 201.219 20.2C201.139 20.4267 201.099 20.7067 201.099 21.04C201.099 21.5467 201.219 21.94 201.459 22.22C201.699 22.5 202.032 22.64 202.459 22.64ZM211.071 21.74C211.405 21.1133 211.651 20.24 211.811 19.12C211.971 17.9867 212.058 16.7667 212.071 15.46C211.805 15.38 211.545 15.28 211.291 15.16C211.051 15.04 210.838 14.9133 210.651 14.78V14H219.911V14.78C219.485 15.02 219.045 15.18 218.591 15.26V22.74C218.871 22.8067 219.118 22.88 219.331 22.96C219.545 23.04 219.738 23.1267 219.911 23.22V24H214.611V23.22C214.771 23.1133 214.931 23.02 215.091 22.94C215.265 22.86 215.471 22.7933 215.711 22.74V15.14H213.511C213.498 15.8467 213.458 16.5867 213.391 17.36C213.325 18.12 213.218 18.8667 213.071 19.6C212.938 20.3333 212.758 21.0267 212.531 21.68C212.305 22.32 212.031 22.8667 211.711 23.32C211.445 23.6933 211.151 23.96 210.831 24.12C210.511 24.28 210.225 24.3333 209.971 24.28C209.798 24.1867 209.638 24.04 209.491 23.84C209.345 23.6267 209.218 23.4067 209.111 23.18C209.005 22.9533 208.918 22.7267 208.851 22.5C208.785 22.2733 208.745 22.08 208.731 21.92L209.191 21.24L211.071 21.74ZM221.068 14H226.388V14.78C226.242 14.86 226.068 14.94 225.868 15.02C225.682 15.1 225.455 15.18 225.188 15.26V19.76L224.968 21.62H225.068L225.848 20.12L229.508 14H233.288V14.78C232.862 15.02 232.422 15.18 231.968 15.26V22.74C232.222 22.8067 232.462 22.88 232.688 22.96C232.915 23.0267 233.115 23.1133 233.288 23.22V24H227.968V23.22C228.342 23.0067 228.742 22.8467 229.168 22.74V18.02L229.368 16.44H229.268L228.508 17.94L224.888 24H221.068V23.22C221.295 23.1133 221.515 23.0267 221.728 22.96C221.942 22.88 222.162 22.8067 222.388 22.74V15.26C221.868 15.18 221.428 15.02 221.068 14.78V14ZM234.987 17.04C234.987 16.5867 235.067 16.1667 235.227 15.78C235.387 15.3933 235.634 15.06 235.967 14.78C236.314 14.5 236.747 14.28 237.267 14.12C237.787 13.96 238.407 13.88 239.127 13.88C239.287 13.88 239.514 13.8867 239.807 13.9C240.114 13.9133 240.434 13.9267 240.767 13.94C241.101 13.9533 241.421 13.9667 241.727 13.98C242.034 13.9933 242.274 14 242.447 14H244.967V14.78C244.861 14.8733 244.707 14.96 244.507 15.04C244.321 15.12 244.034 15.1933 243.647 15.26V22.74C244.141 22.8867 244.581 23.0467 244.967 23.22V24H239.667V23.22C239.987 23.0067 240.354 22.8467 240.767 22.74V19.88L239.447 20.08C239.234 20.5333 238.967 21.0667 238.647 21.68C238.341 22.2933 237.941 22.9133 237.447 23.54L236.827 24H233.867V23.22L234.807 22.74C235.261 22.2867 235.687 21.7867 236.087 21.24C236.501 20.68 236.847 20.2133 237.127 19.84C236.834 19.7467 236.554 19.6267 236.287 19.48C236.034 19.3333 235.807 19.1467 235.607 18.92C235.421 18.6933 235.267 18.4267 235.147 18.12C235.041 17.8133 234.987 17.4533 234.987 17.04ZM240.767 15.14C240.634 15.1133 240.461 15.0867 240.247 15.06C240.047 15.0333 239.867 15.02 239.707 15.02C238.534 15.0067 237.947 15.66 237.947 16.98C237.947 17.58 238.134 18.0667 238.507 18.44C238.881 18.8133 239.454 19 240.227 19H240.767V15.14Z" fill="white"/>
<path d="M81.2139 35.2031V48H79.5439V35.2031H81.2139ZM85.3271 35.2031V36.5918H75.4395V35.2031H85.3271ZM89.0186 47.0156L91.6641 38.4902H93.4043L89.5898 49.4678C89.502 49.7021 89.3848 49.9541 89.2383 50.2236C89.0977 50.499 88.916 50.7598 88.6934 51.0059C88.4707 51.252 88.2012 51.4512 87.8848 51.6035C87.5742 51.7617 87.2021 51.8408 86.7686 51.8408C86.6396 51.8408 86.4756 51.8232 86.2764 51.7881C86.0771 51.7529 85.9365 51.7236 85.8545 51.7002L85.8457 50.3818C85.8926 50.3877 85.9658 50.3936 86.0654 50.3994C86.1709 50.4111 86.2441 50.417 86.2852 50.417C86.6543 50.417 86.9678 50.3672 87.2256 50.2676C87.4834 50.1738 87.7002 50.0127 87.876 49.7842C88.0576 49.5615 88.2129 49.2539 88.3418 48.8613L89.0186 47.0156ZM87.0762 38.4902L89.5459 45.873L89.9678 47.5869L88.7988 48.1846L85.3008 38.4902H87.0762ZM96.498 40.3184V51.6562H94.8633V38.4902H96.3574L96.498 40.3184ZM102.905 43.166V43.3506C102.905 44.042 102.823 44.6836 102.659 45.2754C102.495 45.8613 102.255 46.3711 101.938 46.8047C101.628 47.2383 101.244 47.5752 100.787 47.8154C100.33 48.0557 99.8057 48.1758 99.2139 48.1758C98.6104 48.1758 98.0771 48.0762 97.6143 47.877C97.1514 47.6777 96.7588 47.3877 96.4365 47.0068C96.1143 46.626 95.8564 46.1689 95.6631 45.6357C95.4756 45.1025 95.3467 44.502 95.2764 43.834V42.8496C95.3467 42.1465 95.4785 41.5166 95.6719 40.96C95.8652 40.4033 96.1201 39.9287 96.4365 39.5361C96.7588 39.1377 97.1484 38.8359 97.6055 38.6309C98.0625 38.4199 98.5898 38.3145 99.1875 38.3145C99.7852 38.3145 100.315 38.4316 100.778 38.666C101.241 38.8945 101.631 39.2227 101.947 39.6504C102.264 40.0781 102.501 40.5908 102.659 41.1885C102.823 41.7803 102.905 42.4395 102.905 43.166ZM101.271 43.3506V43.166C101.271 42.6914 101.221 42.2461 101.121 41.8301C101.021 41.4082 100.866 41.0391 100.655 40.7227C100.45 40.4004 100.187 40.1484 99.8643 39.9668C99.542 39.7793 99.1582 39.6855 98.7129 39.6855C98.3027 39.6855 97.9453 39.7559 97.6406 39.8965C97.3418 40.0371 97.0869 40.2275 96.876 40.4678C96.665 40.7021 96.4922 40.9717 96.3574 41.2764C96.2285 41.5752 96.1318 41.8857 96.0674 42.208V44.4844C96.1846 44.8945 96.3486 45.2812 96.5596 45.6445C96.7705 46.002 97.0518 46.292 97.4033 46.5146C97.7549 46.7314 98.1973 46.8398 98.7305 46.8398C99.1699 46.8398 99.5479 46.749 99.8643 46.5674C100.187 46.3799 100.45 46.125 100.655 45.8027C100.866 45.4805 101.021 45.1113 101.121 44.6953C101.221 44.2734 101.271 43.8252 101.271 43.3506ZM110.587 46.374V41.4785C110.587 41.1035 110.511 40.7783 110.358 40.5029C110.212 40.2217 109.989 40.0049 109.69 39.8525C109.392 39.7002 109.022 39.624 108.583 39.624C108.173 39.624 107.812 39.6943 107.502 39.835C107.197 39.9756 106.957 40.1602 106.781 40.3887C106.611 40.6172 106.526 40.8633 106.526 41.127H104.9C104.9 40.7871 104.988 40.4502 105.164 40.1162C105.34 39.7822 105.592 39.4805 105.92 39.2109C106.254 38.9355 106.652 38.7188 107.115 38.5605C107.584 38.3965 108.105 38.3145 108.68 38.3145C109.371 38.3145 109.98 38.4316 110.508 38.666C111.041 38.9004 111.457 39.2549 111.756 39.7295C112.061 40.1982 112.213 40.7871 112.213 41.4961V45.9258C112.213 46.2422 112.239 46.5791 112.292 46.9365C112.351 47.2939 112.436 47.6016 112.547 47.8594V48H110.851C110.769 47.8125 110.704 47.5635 110.657 47.2529C110.61 46.9365 110.587 46.6436 110.587 46.374ZM110.868 42.2344L110.886 43.377H109.242C108.779 43.377 108.366 43.415 108.003 43.4912C107.64 43.5615 107.335 43.6699 107.089 43.8164C106.843 43.9629 106.655 44.1475 106.526 44.3701C106.397 44.5869 106.333 44.8418 106.333 45.1348C106.333 45.4336 106.4 45.7061 106.535 45.9521C106.67 46.1982 106.872 46.3945 107.142 46.541C107.417 46.6816 107.754 46.752 108.152 46.752C108.65 46.752 109.09 46.6465 109.471 46.4355C109.852 46.2246 110.153 45.9668 110.376 45.6621C110.604 45.3574 110.728 45.0615 110.745 44.7744L111.439 45.5566C111.398 45.8027 111.287 46.0752 111.105 46.374C110.924 46.6729 110.681 46.96 110.376 47.2354C110.077 47.5049 109.72 47.7305 109.304 47.9121C108.894 48.0879 108.431 48.1758 107.915 48.1758C107.271 48.1758 106.705 48.0498 106.219 47.7979C105.738 47.5459 105.363 47.209 105.094 46.7871C104.83 46.3594 104.698 45.8818 104.698 45.3545C104.698 44.8447 104.798 44.3965 104.997 44.0098C105.196 43.6172 105.483 43.292 105.858 43.0342C106.233 42.7705 106.685 42.5713 107.212 42.4365C107.739 42.3018 108.328 42.2344 108.979 42.2344H110.868ZM120.914 38.4902V39.835H116.52V48H114.894V38.4902H120.914ZM126.1 48.1758C125.438 48.1758 124.837 48.0645 124.298 47.8418C123.765 47.6133 123.305 47.2939 122.918 46.8838C122.537 46.4736 122.244 45.9873 122.039 45.4248C121.834 44.8623 121.731 44.2471 121.731 43.5791V43.21C121.731 42.4365 121.846 41.748 122.074 41.1445C122.303 40.5352 122.613 40.0195 123.006 39.5977C123.398 39.1758 123.844 38.8564 124.342 38.6396C124.84 38.4229 125.355 38.3145 125.889 38.3145C126.568 38.3145 127.154 38.4316 127.646 38.666C128.145 38.9004 128.552 39.2285 128.868 39.6504C129.185 40.0664 129.419 40.5586 129.571 41.127C129.724 41.6895 129.8 42.3047 129.8 42.9727V43.7021H122.698V42.375H128.174V42.252C128.15 41.8301 128.062 41.4199 127.91 41.0215C127.764 40.623 127.529 40.2949 127.207 40.0371C126.885 39.7793 126.445 39.6504 125.889 39.6504C125.52 39.6504 125.18 39.7295 124.869 39.8877C124.559 40.04 124.292 40.2686 124.069 40.5732C123.847 40.8779 123.674 41.25 123.551 41.6895C123.428 42.1289 123.366 42.6357 123.366 43.21V43.5791C123.366 44.0303 123.428 44.4551 123.551 44.8535C123.68 45.2461 123.864 45.5918 124.104 45.8906C124.351 46.1895 124.646 46.4238 124.992 46.5938C125.344 46.7637 125.742 46.8486 126.188 46.8486C126.762 46.8486 127.248 46.7314 127.646 46.4971C128.045 46.2627 128.394 45.9492 128.692 45.5566L129.677 46.3389C129.472 46.6494 129.211 46.9453 128.895 47.2266C128.578 47.5078 128.188 47.7363 127.726 47.9121C127.269 48.0879 126.727 48.1758 126.1 48.1758ZM138.149 42.6123V43.9307H133.122V42.6123H138.149ZM133.465 38.4902V48H131.839V38.4902H133.465ZM139.468 38.4902V48H137.833V38.4902H139.468ZM145.963 38.4902V48H144.328V38.4902H145.963ZM149.153 38.4902V39.8086H141.199V38.4902H149.153ZM153.855 46.8398C154.242 46.8398 154.6 46.7607 154.928 46.6025C155.256 46.4443 155.525 46.2275 155.736 45.9521C155.947 45.6709 156.067 45.3516 156.097 44.9941H157.644C157.614 45.5566 157.424 46.0811 157.072 46.5674C156.727 47.0479 156.272 47.4375 155.71 47.7363C155.147 48.0293 154.529 48.1758 153.855 48.1758C153.141 48.1758 152.517 48.0498 151.983 47.7979C151.456 47.5459 151.017 47.2002 150.665 46.7607C150.319 46.3213 150.059 45.8174 149.883 45.249C149.713 44.6748 149.628 44.0684 149.628 43.4297V43.0605C149.628 42.4219 149.713 41.8184 149.883 41.25C150.059 40.6758 150.319 40.1689 150.665 39.7295C151.017 39.29 151.456 38.9443 151.983 38.6924C152.517 38.4404 153.141 38.3145 153.855 38.3145C154.6 38.3145 155.25 38.4668 155.807 38.7715C156.363 39.0703 156.8 39.4805 157.116 40.002C157.438 40.5176 157.614 41.1035 157.644 41.7598H156.097C156.067 41.3672 155.956 41.0127 155.763 40.6963C155.575 40.3799 155.317 40.1279 154.989 39.9404C154.667 39.7471 154.289 39.6504 153.855 39.6504C153.357 39.6504 152.938 39.75 152.599 39.9492C152.265 40.1426 151.998 40.4062 151.799 40.7402C151.605 41.0684 151.465 41.4346 151.377 41.8389C151.295 42.2373 151.254 42.6445 151.254 43.0605V43.4297C151.254 43.8457 151.295 44.2559 151.377 44.6602C151.459 45.0645 151.597 45.4307 151.79 45.7588C151.989 46.0869 152.256 46.3506 152.59 46.5498C152.93 46.7432 153.352 46.8398 153.855 46.8398ZM163.348 38.4902V48H161.713V38.4902H163.348ZM166.538 38.4902V39.8086H158.584V38.4902H166.538ZM172.603 43.8164H169.482L169.465 42.5156H172.014C172.518 42.5156 172.937 42.4658 173.271 42.3662C173.61 42.2666 173.865 42.1172 174.035 41.918C174.205 41.7188 174.29 41.4727 174.29 41.1797C174.29 40.9512 174.24 40.752 174.141 40.582C174.047 40.4062 173.903 40.2627 173.71 40.1514C173.517 40.0342 173.276 39.9492 172.989 39.8965C172.708 39.8379 172.377 39.8086 171.996 39.8086H169.913V48H168.287V38.4902H171.996C172.6 38.4902 173.142 38.543 173.622 38.6484C174.108 38.7539 174.521 38.915 174.861 39.1318C175.207 39.3428 175.471 39.6123 175.652 39.9404C175.834 40.2686 175.925 40.6553 175.925 41.1006C175.925 41.3877 175.866 41.6602 175.749 41.918C175.632 42.1758 175.459 42.4043 175.23 42.6035C175.002 42.8027 174.721 42.9668 174.387 43.0957C174.053 43.2188 173.669 43.2979 173.235 43.333L172.603 43.8164ZM172.603 48H168.894L169.702 46.6816H172.603C173.054 46.6816 173.429 46.626 173.728 46.5146C174.026 46.3975 174.249 46.2334 174.396 46.0225C174.548 45.8057 174.624 45.5479 174.624 45.249C174.624 44.9502 174.548 44.6953 174.396 44.4844C174.249 44.2676 174.026 44.1035 173.728 43.9922C173.429 43.875 173.054 43.8164 172.603 43.8164H170.133L170.15 42.5156H173.235L173.824 43.0078C174.346 43.0488 174.788 43.1777 175.151 43.3945C175.515 43.6113 175.79 43.8867 175.978 44.2207C176.165 44.5488 176.259 44.9062 176.259 45.293C176.259 45.7383 176.174 46.1309 176.004 46.4707C175.84 46.8105 175.6 47.0947 175.283 47.3232C174.967 47.5459 174.583 47.7158 174.132 47.833C173.681 47.9443 173.171 48 172.603 48ZM178.008 43.3506V43.1484C178.008 42.4629 178.107 41.8271 178.307 41.2412C178.506 40.6494 178.793 40.1367 179.168 39.7031C179.543 39.2637 179.997 38.9238 180.53 38.6836C181.063 38.4375 181.661 38.3145 182.323 38.3145C182.991 38.3145 183.592 38.4375 184.125 38.6836C184.664 38.9238 185.121 39.2637 185.496 39.7031C185.877 40.1367 186.167 40.6494 186.366 41.2412C186.565 41.8271 186.665 42.4629 186.665 43.1484V43.3506C186.665 44.0361 186.565 44.6719 186.366 45.2578C186.167 45.8438 185.877 46.3564 185.496 46.7959C185.121 47.2295 184.667 47.5693 184.134 47.8154C183.606 48.0557 183.009 48.1758 182.341 48.1758C181.673 48.1758 181.072 48.0557 180.539 47.8154C180.006 47.5693 179.549 47.2295 179.168 46.7959C178.793 46.3564 178.506 45.8438 178.307 45.2578C178.107 44.6719 178.008 44.0361 178.008 43.3506ZM179.634 43.1484V43.3506C179.634 43.8252 179.689 44.2734 179.801 44.6953C179.912 45.1113 180.079 45.4805 180.302 45.8027C180.53 46.125 180.814 46.3799 181.154 46.5674C181.494 46.749 181.89 46.8398 182.341 46.8398C182.786 46.8398 183.176 46.749 183.51 46.5674C183.85 46.3799 184.131 46.125 184.354 45.8027C184.576 45.4805 184.743 45.1113 184.854 44.6953C184.972 44.2734 185.03 43.8252 185.03 43.3506V43.1484C185.03 42.6797 184.972 42.2373 184.854 41.8213C184.743 41.3994 184.573 41.0273 184.345 40.7051C184.122 40.377 183.841 40.1191 183.501 39.9316C183.167 39.7441 182.774 39.6504 182.323 39.6504C181.878 39.6504 181.485 39.7441 181.146 39.9316C180.812 40.1191 180.53 40.377 180.302 40.7051C180.079 41.0273 179.912 41.3994 179.801 41.8213C179.689 42.2373 179.634 42.6797 179.634 43.1484Z" fill="white"/>
<circle cx="30" cy="30" r="29.5" stroke="white"/>
<g filter="url(#filter0_d_22_2)">
<path d="M63.2078 10.5356L61.0769 7.42788L59.2867 5.8765L59.2701 4.60788L58.4212 4L57.3559 6.26637L55.7459 5.22236L55.1886 5.78887L55.8148 7.0446L46.5703 15.8584L32.0115 22.9515L27.644 23.9181L26.6165 24.4447L23.9038 27.9511L22.7772 31.7466L22.5127 33.8448L23.0969 35.0974L23.1586 34.6399L24.1991 30.8548L23.2062 38.4985L22.0798 41.9438L20 52.4316H21.8884L21.3175 51.4826L22.3093 46.4718L26.0545 38.9928L25.3657 41.8043L28.2919 52.4316H30.2819L29.4497 51.3724L28.0537 47.2084L27.4639 40.9549L29.6087 36.0147L30.8934 34.7613L36.845 34.77L37.8978 35.8196L35.9732 50.1469L36.05 52.4316H37.9439L37.2455 51.3825L37.506 45.9273L40.4114 35.9413L40.7681 35.9438L47.1446 52.4316H49.0591L48.0865 51.4382L46.353 46.7498L43.6351 34.9205L44.3556 28.8518L44.0028 27.1587L44.3345 25.9676L56.7052 11.9222L58.5897 11.5542L63.3487 13.2859L63.6867 11.9442L63.2078 10.5356Z" fill="white"/>
</g>
<defs>
<filter id="filter0_d_22_2" x="16" y="4" width="51.6867" height="56.4316" filterUnits="userSpaceOnUse" color-interpolation-filters="sRGB">
<feFlood flood-opacity="0" result="BackgroundImageFix"/>
<feColorMatrix in="SourceAlpha" type="matrix" values="0 0 0 0 0 0 0 0 0 0 0 0 0 0 0 0 0 0 127 0" result="hardAlpha"/>
<feOffset dy="4"/>
<feGaussianBlur stdDeviation="2"/>
<feComposite in2="hardAlpha" operator="out"/>
<feColorMatrix type="matrix" values="0 0 0 0 0 0 0 0 0 0 0 0 0 0 0 0 0 0 0.25 0"/>
<feBlend mode="normal" in2="BackgroundImageFix" result="effect1_dropShadow_22_2"/>
<feBlend mode="normal" in="SourceGraphic" in2="effect1_dropShadow_22_2" result="shape"/>
</filter>
</defs>
</svg>
